<?xml version="1.0" encoding="UTF-8"?>
<svg version="1.1" xmlns="http://www.w3.org/2000/svg" width="406" height="402">
<path d="M0 0 C133.98 0 267.96 0 406 0 C406 132.66 406 265.32 406 402 C272.02 402 138.04 402 0 402 C0 269.34 0 136.68 0 0 Z " fill="#F4F2ED" transform="translate(0,0)"/>
<path d="M0 0 C0.36001831 5.58748411 -0.74407244 9.5391678 -3.125 14.5 C-3.77094113 15.92123506 -4.41544231 17.34312534 -5.05859375 18.765625 C-5.38456543 19.47654297 -5.71053711 20.18746094 -6.04638672 20.91992188 C-15.31890773 41.14569735 -21.50797586 64.15861567 -14 86 C-9.82232956 96.33101422 -4.00509284 105.39492323 2.68359375 114.25244141 C4.92514029 117.22814432 7.11373901 120.24263166 9.3125 123.25 C10.23283061 124.50408411 11.15340861 125.7579867 12.07421875 127.01171875 C13.04954188 128.34109982 14.02479963 129.67052887 15 131 C15.53061035 131.72268066 16.0612207 132.44536133 16.60791016 133.18994141 C33.74761455 156.57508613 48.50098212 180.56396951 57.1796875 208.4765625 C57.97234498 210.9149279 58.9183818 213.21130604 59.9375 215.5625 C70.9010887 242.47312681 74.24556052 276.66963355 63.046875 303.8984375 C58.81198673 313.59702432 53.73259103 321.83170297 47 330 C45.47693718 331.93083589 43.96480571 333.86995142 42.45263672 335.80932617 C40.31367562 338.54902998 38.15701706 341.27449806 36 344 C35.67 343.34 35.34 342.68 35 342 C35.9965449 339.67272143 37.05028404 337.44480772 38.1875 335.1875 C41.53551207 328.29609894 43.9965291 321.4067712 46 314 C46.21398437 313.26265625 46.42796875 312.5253125 46.6484375 311.765625 C54.34755695 283.87026468 45.21222455 254.58395689 32.04589844 229.96972656 C30.97752378 227.95767083 29.94319789 225.93081205 28.9140625 223.8984375 C20.01521598 206.47829588 9.11747078 190.2539869 -2.19189453 174.32080078 C-24.09369304 143.44361378 -48.24355476 103.46375534 -41.875 64.5625 C-37.16665035 39.13971993 -22.58400451 19.38413635 -4 2 C-1 0 -1 0 0 0 Z " fill="#5A250B" transform="translate(186,24)"/>
<path d="M0 0 C2.0858488 3.42367895 2.0858488 3.42367895 1.70800781 5.96020508 C1.45889648 6.63978271 1.20978516 7.31936035 0.953125 8.01953125 C0.552146 9.17086548 0.552146 9.17086548 0.14306641 10.34545898 C-0.15164551 11.15958252 -0.44635742 11.97370605 -0.75 12.8125 C-7.44844076 32.6112472 -8.74062699 53.09630033 0.6875 72.25 C5.44766101 81.49315922 11.66468813 88.85271864 19.078125 96.09375 C40.93442151 117.77235304 61.30791329 146.47836101 61.453125 178.01879883 C61.12031034 200.39898477 48.78441598 221.87193382 33.33520508 237.70629883 C32.8945874 238.13322021 32.45396973 238.5601416 32 239 C33.15537841 235.34130169 34.47804422 231.79519142 35.9375 228.25 C37.95670688 223.25077405 39.58710958 218.2012999 41 213 C41.35320312 211.8140625 41.70640625 210.628125 42.0703125 209.40625 C43.36278215 204.17144163 43.29213077 198.98965197 43.25 193.625 C43.25773437 192.64789063 43.26546875 191.67078125 43.2734375 190.6640625 C43.22223584 171.41223767 34.41358895 157.15940047 21 143.75 C17.6635355 140.46452155 14.24816131 137.2921184 10.6875 134.25 C-8.08771902 118.04725475 -24.36087418 90.26492558 -26.29296875 65.19921875 C-27.01505418 43.107748 -19.82615916 21.77403187 -5.0625 5.25 C-3.39528007 3.47697022 -1.72073603 1.72073603 0 0 Z " fill="#5A270C" transform="translate(110,123)"/>
<path d="M0 0 C0.66 0.66 1.32 1.32 2 2 C1.79910829 5.06359853 1.45815587 7.97108067 1 11 C0.76023437 12.68996094 0.76023437 12.68996094 0.515625 14.4140625 C-0.84051724 23.68103448 -0.84051724 23.68103448 -2 26 C-3.20078448 39.01177932 -0.55253317 49.72450226 7.6550293 59.97338867 C12.99037908 66.36102267 18.75838366 72.37353301 24.49072266 78.40234375 C27.43134422 81.51515959 30.24771116 84.72053146 33 88 C33.64195312 88.75152344 34.28390625 89.50304687 34.9453125 90.27734375 C45.19884042 102.61666537 50.86259221 115.9516157 56 131 C56.24443848 131.70672852 56.48887695 132.41345703 56.74072266 133.14160156 C63.58935771 153.67216251 61.31550762 177.47128217 52.4765625 197.07421875 C40.23571091 221.32923949 40.23571091 221.32923949 33 228 C33.391875 226.741875 33.78375 225.48375 34.1875 224.1875 C35.7722476 218.9024805 37.21110387 213.58268606 38.625 208.25 C38.84309326 207.43426514 39.06118652 206.61853027 39.28588867 205.77807617 C41.38101992 197.81527458 42.18193906 190.48019033 42.1875 182.25 C42.20586914 180.84234375 42.20586914 180.84234375 42.22460938 179.40625 C42.23782531 173.02736007 41.47332749 167.19836906 40 161 C39.75121094 159.85273438 39.50242187 158.70546875 39.24609375 157.5234375 C35.86617049 144.36296334 29.33112513 132.98728702 20.3359375 122.8203125 C14.16845118 115.37394942 9.14778305 107.15219179 4.1875 98.875 C-0.75544516 90.62484175 -0.75544516 90.62484175 -5.91796875 82.51171875 C-15.96102661 67.23346956 -22.0920122 52.5374036 -18.61181641 33.92382812 C-15.66060341 21.47754216 -8.79971502 9.23970078 0 0 Z " fill="#5A260C" transform="translate(274,70)"/>
<path d="M0 0 C0.99 0.33 1.98 0.66 3 1 C-1.455 6.94 -1.455 6.94 -6 13 C-6.33 12.34 -6.66 11.68 -7 11 C-6.07421875 8.65234375 -6.07421875 8.65234375 -4.6875 5.9375 C-4.23761719 5.03902344 -3.78773438 4.14054687 -3.32421875 3.21484375 C-2 1 -2 1 0 0 Z " fill="#79503A" transform="translate(149,349)"/>
<path d="M0 0 C1.14952951 4.16814134 1.05686448 6.9378254 -0.9609375 10.875 C-1.94257058 12.60156031 -2.96838656 14.3028295 -4 16 C-5 14 -5 14 -4.00390625 10.7421875 C-3.53110016 9.4502948 -3.05028031 8.16131362 -2.5625 6.875 C-2.31951172 6.21628906 -2.07652344 5.55757813 -1.82617188 4.87890625 C-1.22421679 3.25008662 -0.61297588 1.62470425 0 0 Z " fill="#85604D" transform="translate(312,282)"/>
</svg>
